<svg width="130" height="26" viewBox="0 0 130 26" fill="none" xmlns="http://www.w3.org/2000/svg">
<path d="M6.61985 1.6039H8.83759C12.8562 1.6039 14.8238 3.51169 14.8238 7.5974C14.8238 11.6325 12.7561 14.3 8.20396 14.3V14.9754C8.33733 15.0091 8.65415 15.0429 9.10441 15.0429C14.2235 15.0429 18.4255 12.2065 18.4255 7.24286C18.4255 2.83636 15.4574 0.455844 9.45453 0.455844H0V1.38442C3.01812 1.77273 3.11816 1.63766 3.11816 4.25454V22.2013C3.11816 24.835 3.01812 24.6831 0 25.0883V26H9.73804V25.0883C6.7199 24.6831 6.61985 24.835 6.61985 22.2013V1.6039ZM33.1159 0C30.0978 8.08702 25.8958 20.0065 24.3284 23.1974C23.7614 24.413 22.7109 25.0377 21.7271 25.0377V26H28.3136V25.0377C27.013 25.0377 26.3626 24.261 26.3626 23.2312C26.3626 23.0961 26.396 22.7416 26.4961 22.4208L28.1802 17.5247H37.3512L38.902 22.235C39.0688 22.7753 39.1855 23.1636 39.1855 23.5519C39.1855 24.4467 38.5852 25.0377 37.0011 25.0377V26H45.4218V25.0377C43.8711 25.0377 43.2708 23.8727 42.4704 21.813C41.2532 18.5883 37.5681 7.34416 35.1169 0H33.1159ZM28.6971 16.1402L33.0159 4.25454H33.0826L36.9011 16.1402H28.6971ZM51.0912 0.455844V1.38442C54.1094 1.77273 54.2094 1.63766 54.2094 4.25454V22.2013C54.2094 24.835 54.1094 24.6831 51.0912 25.0883V26H68.8331L69.917 19.4325H68.9998C67.3491 23.3494 67.5658 24.8688 62.3466 24.8688C59.1284 24.8688 57.7278 24.5818 57.7278 22.0325V4.25454C57.7278 1.63766 57.8278 1.77273 60.8459 1.38442V0.455844H51.0912ZM86.3585 0C83.3404 8.08702 79.1381 20.0065 77.5539 23.1974C77.0037 24.413 75.9531 25.0377 74.9694 25.0377V26H81.5557V25.0377C80.2549 25.0377 79.5882 24.261 79.5882 23.2312C79.5882 23.0961 79.6216 22.7416 79.7383 22.4208L81.4057 17.5247H90.5931L92.1275 22.235C92.3112 22.7753 92.4107 23.1636 92.4107 23.5519C92.4107 24.4467 91.8105 25.0377 90.2433 25.0377V26H98.6475V25.0377C97.1132 25.0377 96.513 23.8727 95.7129 21.813C94.4787 18.5883 90.8106 7.34416 88.3422 0H86.3585ZM81.9393 16.1402L86.2414 4.25454H86.3248L90.143 16.1402H81.9393ZM106.118 0.455844V1.38442C107.702 1.38442 108.435 2.22857 109.486 3.86623L115.022 12.561L108.252 22.2857C107.001 24.126 106.084 25.0883 104.334 25.0883V26H111.453V25.0883C110.536 25.0883 109.803 24.6156 109.803 23.7039C109.803 23.1636 110.053 22.5221 110.604 21.7117L115.972 13.9454L121.609 22.0325C122.125 22.8091 122.342 23.4169 122.342 23.839C122.342 24.835 121.325 25.0883 120.374 25.0883V26H129.563V25.0883C127.561 25.0883 127.111 24.4805 125.294 21.813L118.173 11.4974L124.126 3.22467C124.893 2.16104 126.26 1.38442 127.461 1.38442V0.455844H120.625V1.38442C121.459 1.38442 122.309 1.73896 122.309 2.54935C122.309 2.9039 122.175 3.34286 121.775 3.86623L117.123 10.2481L113.338 4.22078C112.921 3.57922 112.737 3.02208 112.737 2.63377C112.737 1.70519 113.622 1.38442 114.572 1.38442V0.455844H106.118Z" fill="#F5F5FF"/>
</svg>
