<svg width="64" height="64" viewBox="0 0 64 64" fill="none" xmlns="http://www.w3.org/2000/svg">
<path fill-rule="evenodd" clip-rule="evenodd" d="M28.5751 0.179756C27.3225 0.482971 26.2701 1.08316 25.3025 2.04595C24.3046 3.03913 23.75 4.03068 23.4156 5.41961C23.2997 5.90098 23.1447 6.33627 23.0713 6.38679C22.9976 6.4373 22.7569 6.47945 22.536 6.48055C21.9275 6.48343 20.3739 7.01682 19.4204 7.55026C18.4128 8.11378 16.9859 9.51022 16.3974 10.5085C15.6486 11.7788 15.3401 12.8764 15.2796 14.4849C15.2409 15.5169 15.281 16.1588 15.4216 16.7587C15.8354 18.5231 16.9266 20.2651 18.2875 21.3337C19.311 22.1373 19.7535 22.3907 20.875 22.815L21.8125 23.1696L25.9687 23.2113L30.125 23.2528V25.4326V27.6124L20.0938 27.6444L10.0625 27.6764L10.0293 31.0837L9.99602 34.491H11.8691H13.7423L13.7774 32.9593L13.8125 31.4276L21.9687 31.3954L30.125 31.3633V32.9271V34.491H32H33.875V32.9271V31.3633L42.0313 31.3954L50.1874 31.4276L50.2226 32.9593L50.2578 34.491H52.1307H54.0041L53.9707 31.0837L53.9374 27.6764L43.9062 27.6444L33.875 27.6124V25.425V23.2375L38.5312 23.2361C43.5654 23.2344 43.8565 23.204 45.2336 22.5356C46.0914 22.1191 47.5547 20.6821 48.0293 19.7896C48.9929 17.9782 49.0002 15.537 48.048 13.6544C47.6005 12.7695 46.565 11.6411 45.7696 11.1714C45.1891 10.8284 45.1281 10.7481 45.0574 10.2336C44.7818 8.22907 44.1038 6.8309 42.7525 5.48023C41.2031 3.93153 39.49 3.23144 37.2494 3.23144H36.0514L35.5836 2.618C34.0238 0.571877 31.1236 -0.437057 28.5751 0.179756ZM31.5748 4.08107C32.485 4.54559 32.9503 5.20581 33.3976 6.66775C33.619 7.39109 33.8439 7.9829 33.8975 7.9829C33.951 7.9829 34.5529 7.75781 35.235 7.48274C36.2434 7.07611 36.6285 6.98258 37.2954 6.98258C39.2739 6.98258 40.8383 8.25833 41.2574 10.2137C41.359 10.6872 41.3446 11.0805 41.1949 11.9371C40.8919 13.6701 40.8329 13.5467 42.0709 13.774C43.462 14.0296 44.1362 14.424 44.6314 15.2721C44.9736 15.8582 45.0076 16.011 44.973 16.8093C44.9275 17.8607 44.5621 18.526 43.7268 19.0789L43.2058 19.4239H32.7591H22.3125L21.645 19.0721C20.701 18.5749 19.9159 17.8054 19.4571 16.9277C19.0873 16.2203 19.0625 16.0905 19.0625 14.86C19.0625 13.6731 19.0964 13.4782 19.4148 12.8295C19.6085 12.4347 20.0231 11.8557 20.336 11.5427C21.4564 10.422 22.5088 10.1085 25.1513 10.1085H27V8.25522C27 6.88357 27.052 6.24923 27.2002 5.81408C27.4492 5.08311 28.3108 4.19723 29.0304 3.93203C29.7305 3.6742 30.9131 3.74347 31.5748 4.08107ZM10.4543 40.316C8.22949 40.8547 6.34098 42.811 5.8741 45.0608C5.648 46.1504 5.76448 50.0352 6.04448 50.7461C6.38789 51.6174 6.38473 51.6242 5.43749 52.0265C3.35338 52.9125 1.8625 54.2866 0.925125 56.1851C0.165625 57.7234 0 58.6994 0 61.6352V64H32H64V61.6192C64 58.7182 63.835 57.755 63.0688 56.1851C62.1531 54.3099 60.5568 52.8302 58.597 52.0407C58.1655 51.8665 57.7746 51.6873 57.7285 51.6416C57.6818 51.5959 57.7787 51.1648 57.9438 50.6834C58.2135 49.8958 58.2437 49.5945 58.2469 47.6777C58.2514 44.6325 57.8606 43.4037 56.4274 41.9586C53.2256 38.7303 47.8469 39.9734 46.2245 44.3166C45.9739 44.9879 45.9479 45.2891 45.9442 47.5575C45.941 49.8469 45.9643 50.1216 46.2203 50.8041C46.3739 51.2142 46.5001 51.5657 46.5001 51.5849C46.5001 51.6037 45.9794 51.8642 45.3438 52.1637C44.1142 52.7424 42.7755 53.6786 42.3465 54.2587L42.0864 54.6107L41.1589 53.7445C40.2936 52.9358 39.0218 52.1646 37.924 51.7819L37.5355 51.6466L37.8523 50.7273C38.1429 49.8839 38.1695 49.6274 38.1754 47.6201C38.1809 45.7093 38.147 45.3208 37.9085 44.5566C37.1296 42.0607 35.0881 40.4007 32.5079 40.1653C31.4347 40.0674 30.3927 40.2716 29.3125 40.7913C27.7052 41.5645 26.6318 42.818 26.0924 44.5513C25.8529 45.3208 25.8191 45.7078 25.8246 47.6201C25.8305 49.6274 25.8571 49.8839 26.1477 50.7273L26.4645 51.6466L26.076 51.7819C24.9738 52.1659 23.7065 52.9358 22.8322 53.7527L21.8958 54.6272L21.6332 54.2587C21.2201 53.6782 19.9176 52.7589 18.6562 52.1568C18.0203 51.8537 17.5 51.5927 17.5 51.5776C17.5 51.5625 17.6259 51.2142 17.7797 50.8041C18.0359 50.1216 18.0591 49.8469 18.0556 47.5575C18.0521 45.2891 18.0261 44.9879 17.7754 44.3166C16.6329 41.2578 13.5416 39.5686 10.4543 40.316ZM13.2945 44.3312C14.1795 44.9568 14.3125 45.3889 14.3125 47.6407V49.5995L13.9359 50.1413C12.8434 51.7134 10.6153 51.5557 9.73787 49.8446C9.53723 49.4533 9.49998 49.1045 9.49998 47.621C9.49998 45.7477 9.61449 45.2315 10.1622 44.6356C10.933 43.7969 12.3446 43.6598 13.2945 44.3312ZM32.8478 44.063C33.1034 44.1698 33.4722 44.409 33.6674 44.5945C34.3195 45.214 34.375 45.4472 34.375 47.5653C34.375 49.3454 34.3501 49.568 34.103 50.0082C33.2176 51.584 30.9471 51.6571 29.9859 50.1408C29.6271 49.5753 29.625 49.5598 29.625 47.5895C29.625 45.4452 29.6794 45.2149 30.3326 44.5947C31.0621 43.9021 31.9921 43.7056 32.8478 44.063ZM52.971 44.0624C53.5886 44.3205 53.9845 44.7015 54.2638 45.3068C54.6075 46.0517 54.6062 49.173 54.2619 49.8446C53.3847 51.5557 51.1566 51.7134 50.064 50.1417C49.6978 49.6142 49.6864 49.5534 49.6434 47.909C49.5904 45.8647 49.7257 45.2687 50.3927 44.6013C51.1003 43.8935 52.0782 43.6892 52.971 44.0624ZM10.4325 54.7945C11.4267 55.0651 12.3687 55.0501 13.5765 54.7447L14.5755 54.4919L15.944 55.0647C17.6274 55.7691 18.1811 56.0905 18.7729 56.7063C19.523 57.4871 20.125 58.9605 20.125 60.016C20.125 60.2409 19.8414 60.2487 11.9198 60.2487H3.71438L3.79563 59.4715C3.94262 58.0649 4.92814 56.5061 6.05499 55.8981C6.97289 55.4025 9.20923 54.5111 9.43749 54.5499C9.575 54.5728 10.0228 54.683 10.4325 54.7945ZM30.625 54.8155C31.5821 55.0597 32.9724 55.0043 33.9456 54.683L34.5787 54.4741L36.185 55.136C37.077 55.5035 38.0507 56.0032 38.375 56.2592C39.4228 57.088 40.125 58.4718 40.125 59.7088V60.2487H32H23.875V59.7088C23.875 58.4978 24.5557 57.1287 25.5721 56.2958C26.2073 55.7751 29.196 54.4686 29.5625 54.5518C29.7 54.5824 30.1781 54.7013 30.625 54.8155ZM50.5001 54.7621C51.7056 55.067 52.8841 55.0441 54 54.6935L54.6875 54.4777L56.2501 55.1223C58.3982 56.0082 59.1817 56.6473 59.8139 58.0293C59.9849 58.4023 60.1609 59.0542 60.2053 59.4779L60.2857 60.2487H52.0805C44.1586 60.2487 43.875 60.2409 43.875 60.016C43.875 58.5851 44.7349 56.9349 45.9195 56.091C46.2345 55.8665 49.1502 54.5312 49.3824 54.5051C49.4208 54.5006 49.9237 54.6162 50.5001 54.7621Z" fill="url(#paint0_linear_991_46)"/>
<defs>
<linearGradient id="paint0_linear_991_46" x1="64" y1="0" x2="0" y2="64" gradientUnits="userSpaceOnUse">
<stop stop-color="#72F550"/>
<stop offset="1" stop-color="#00A3FF"/>
</linearGradient>
</defs>
</svg>
