<svg width="64" height="64" viewBox="0 0 64 64" fill="none" xmlns="http://www.w3.org/2000/svg">
<path fill-rule="evenodd" clip-rule="evenodd" d="M6 28.25V56.5001H9.75H13.5V60.2501V64H29.8442H46.1885L52.3442 57.8432L58.5001 51.6864V29.5932V7.49998H54.7501H51V3.75V0H28.5H6V28.25ZM47.25 5.62501V7.49998H30.375H13.5V30.125V52.7502H11.625H9.75V28.25V3.75H28.5H47.25V5.62501ZM54.7501 30.125V49.0002H49.125H43.5V54.6249V60.2501H30.375H17.25V35.75V11.25H36H54.7501V30.125ZM21 17V18.875H36H51V17V15.125H36H21V17ZM21 24.5V26.375H36H51V24.5V22.625H36H21V24.5ZM21 32V33.875H36H51V32V30.125H36H21V32ZM21 39.5V41.375H36H51V39.5V37.625H36H21V39.5ZM21 47.125V49.0002H30.375H39.75V47.125V45.25H30.375H21V47.125ZM51.9999 52.7826C51.9999 52.8005 50.9312 53.8825 49.625 55.1877L47.25 57.5602V55.1552V52.7502H49.625C50.9312 52.7502 51.9999 52.7648 51.9999 52.7826Z" fill="url(#paint0_linear_991_48)"/>
<defs>
<linearGradient id="paint0_linear_991_48" x1="58.5001" y1="1.87054e-06" x2="-4.26479" y2="51.4866" gradientUnits="userSpaceOnUse">
<stop stop-color="#72F550"/>
<stop offset="1" stop-color="#00A3FF"/>
</linearGradient>
</defs>
</svg>
