<svg width="64" height="64" viewBox="0 0 64 64" fill="none" xmlns="http://www.w3.org/2000/svg">
<path fill-rule="evenodd" clip-rule="evenodd" d="M7.49998 16.875V33.75H18.8125H30.125V35.17C30.125 35.9511 30.0892 36.8511 30.0455 37.17L29.966 37.75H18.733H7.49998L7.50062 42.2187L7.50139 46.6875L6.97189 47.8437L6.44224 49.0002H3.22112H0V56.5001V64H9.37499H18.75V54.6249V45.25H15H11.25V43.375V41.5H20.6875H30.125L30.1256 44.0938L30.1264 46.6875L29.5969 47.8437L29.0672 49.0002H25.8461H22.625V56.5001V64H32H41.375V54.6249V45.25H37.625H33.875V43.375V41.5H43.3125H52.7502L52.7506 44.0938L52.7515 46.6875L52.2217 47.8437L51.6923 49.0002H48.4713H45.25V56.5001V64H54.6249H64V54.6249V45.25H60.2501H56.5001V41.5V37.75H45.108H33.716L33.7955 37.17C33.8393 36.8511 33.875 35.9511 33.875 35.17V33.75H45.1875H56.5001V16.875V0H32H7.49998V16.875ZM52.7502 9.37499V15H32H11.25V9.37499V3.75H32H52.7502V9.37499ZM14.75 9.37499V11.25H16.625H18.5V9.37499V7.49998H16.625H14.75V9.37499ZM22.25 9.37499V11.25H24.125H26V9.37499V7.49998H24.125H22.25V9.37499ZM52.7502 24.375V30H32H11.25V24.375V18.75H32H52.7502V24.375ZM14.75 24.375V26.25H16.625H18.5V24.375V22.5H16.625H14.75V24.375ZM22.25 24.375V26.25H24.125H26V24.375V22.5H24.125H22.25V24.375ZM15 54.6249V60.2501H9.37499H3.75V56.5001V52.7502H6.29189H8.83374L9.69577 50.875L10.5579 49.0002H12.7789H15V54.6249ZM37.625 54.6249V60.2501H32H26.375V56.5001V52.7502H28.9169H31.4587L32.3207 50.875L33.1829 49.0002H35.4039H37.625V54.6249ZM60.2501 54.6249V60.2501H54.6249H49.0002V56.5001V52.7502H51.5419H54.0837L54.9458 50.875L55.808 49.0002H58.0288H60.2501V54.6249Z" fill="url(#paint0_linear_991_56)"/>
<defs>
<linearGradient id="paint0_linear_991_56" x1="64" y1="0" x2="0" y2="64" gradientUnits="userSpaceOnUse">
<stop stop-color="#72F550"/>
<stop offset="1" stop-color="#00A3FF"/>
</linearGradient>
</defs>
</svg>
