<svg width="64" height="64" viewBox="0 0 64 64" fill="none" xmlns="http://www.w3.org/2000/svg">
<path fill-rule="evenodd" clip-rule="evenodd" d="M23.8525 2.68833V5.37665H26.5432H29.2339L29.2003 8.153L29.1667 10.9294L27.6758 11.1527C19.8322 12.328 12.9189 16.9405 8.78666 23.7553C5.0994 29.8361 4.07508 36.8304 5.84513 43.8394C7.03412 48.5471 9.40059 52.691 12.8964 56.1869C18.1781 61.4685 25.3489 64.2936 32.6678 63.9758C39.6263 63.6735 45.9468 60.918 50.7799 56.0794C56.7332 50.1192 59.3608 42.1405 58.1714 33.6354C57.351 27.7689 55.0344 22.9941 50.998 18.8498L50.0544 17.8809L50.923 17.0055C51.4009 16.5239 51.8485 16.1299 51.9176 16.1299C51.9871 16.1299 52.4956 16.5799 53.0485 17.1298L54.0536 18.1296L55.8955 16.2846L57.7374 14.4397L53.7362 10.4402L49.7352 6.44075L47.8927 8.28328L46.0501 10.1259L47.1087 11.19L48.1673 12.254L46.9846 13.4418C46.334 14.0951 45.7614 14.6295 45.7122 14.6295C45.6629 14.6295 45.2722 14.4241 44.8436 14.173C42.6521 12.8884 39.3374 11.7601 36.075 11.1877L34.8559 10.9739V8.17527V5.37665H37.4817H40.1076V2.68833V0H31.9801H23.8525V2.68833ZM34.8559 16.269C41.8482 17.2397 48.3243 22.055 51.233 28.4462C52.6163 31.4859 53.1637 34.0441 53.1596 37.449C53.155 41.1585 52.5221 43.8516 50.9116 47.0142C47.7857 53.1528 42.1389 57.2103 35.231 58.2822C33.8594 58.4948 30.4842 58.4962 29.0417 58.2849C21.2024 57.1358 14.7704 52.0558 11.8517 44.7084C11.4442 43.6826 10.9586 41.8414 10.712 40.3874C10.4808 39.0236 10.5108 35.5966 10.7678 34.039C12.5138 23.4537 21.9367 15.685 32.5427 16.0867C33.2992 16.1155 34.3402 16.1975 34.8559 16.269ZM29.5418 21.5659C25.8967 22.1471 22.896 23.7008 20.375 26.312C17.276 29.522 15.7067 33.6167 15.8909 38.0117C15.9949 40.4953 16.4603 42.3503 17.5064 44.4512C22.2059 53.8895 34.4391 56.3639 42.3583 49.4776C45.7067 46.5656 47.8488 42.0128 47.8578 37.7889C47.8608 36.3274 47.8578 34.6982 47.8578 34.6982C47.8578 34.6982 37.9612 34.7349 34.5433 34.6982C34.4956 30.2549 34.4808 21.3191 34.4808 21.3191C34.4808 21.3191 31.6027 21.2372 29.5418 21.5659ZM29.2292 32.548V40.0152C29.2292 40.0152 36.5662 40.1365 37.2004 40.1366C39.9684 40.137 42.2332 40.1674 42.2332 40.2039C42.2332 40.2405 42.0627 40.7128 41.8541 41.2536C40.1349 45.7116 35.4944 48.5329 30.7507 48.0038C28.089 47.707 25.9333 46.6274 24.0795 44.6621C22.7034 43.2034 21.7998 41.4518 21.3964 39.4612C21.0954 37.9758 21.2126 35.6658 21.6602 34.2606C22.5565 31.4467 24.5121 29.1323 27.1035 27.8187C27.7525 27.4897 28.93 27.0227 29.1354 27.0128C29.1869 27.0103 29.2292 29.5012 29.2292 32.548Z" fill="url(#paint0_linear_991_52)"/>
<defs>
<linearGradient id="paint0_linear_991_52" x1="58.4513" y1="3.09342e-07" x2="-4.52438" y2="52.5959" gradientUnits="userSpaceOnUse">
<stop stop-color="#72F550"/>
<stop offset="1" stop-color="#00A3FF"/>
</linearGradient>
</defs>
</svg>
